<svg width="15" height="16" viewBox="0 0 15 16" fill="none" xmlns="http://www.w3.org/2000/svg">
<g id="BookOpen-d">
<path id="Vector" d="M12.8438 4.02347H9.19793C8.71447 4.02347 8.25078 4.21551 7.90893 4.55741C7.56708 4.89921 7.37501 5.36295 7.37501 5.84638C7.37501 5.36295 7.18294 4.89921 6.84109 4.55741C6.49924 4.21551 6.03555 4.02347 5.55209 4.02347H1.90626C1.7854 4.02347 1.66947 4.07153 1.58402 4.15698C1.49854 4.24243 1.45053 4.35837 1.45053 4.4792V11.7709C1.45053 11.8917 1.49854 12.0076 1.58402 12.0931C1.66947 12.1785 1.7854 12.2266 1.90626 12.2266H5.55209C6.03555 12.2266 6.49924 12.4186 6.84109 12.7605C7.18294 13.1023 7.37501 13.5661 7.37501 14.0495C7.37501 13.5661 7.56708 13.1023 7.90893 12.7605C8.25078 12.4186 8.71447 12.2266 9.19793 12.2266H12.8438C12.9646 12.2266 13.0806 12.1785 13.166 12.0931C13.2515 12.0076 13.2995 11.8917 13.2995 11.7709V4.4792C13.2995 4.35837 13.2515 4.24243 13.166 4.15698C13.0806 4.07153 12.9646 4.02347 12.8438 4.02347Z" fill="black" fill-opacity="0.1"/>
<path id="Vector_2" d="M7.58668 12.4383C6.91928 13.1057 6.91928 14.0495 6.91928 14.0495C6.91928 14.3012 7.12332 14.5052 7.37501 14.5052C7.6267 14.5052 7.83074 14.3012 7.83074 14.0495C7.83074 13.4832 8.23118 13.0828 8.23118 13.0828C8.63162 12.6823 9.19793 12.6823 9.19793 12.6823H12.8438C13.2213 12.6823 13.4883 12.4154 13.4883 12.4154C13.7552 12.1484 13.7552 11.7709 13.7552 11.7709V4.47919C13.7552 4.10165 13.4883 3.83469 13.4883 3.83469C13.2213 3.56773 12.8438 3.56773 12.8438 3.56773H9.19793C8.25408 3.56773 7.58668 4.23513 7.58668 4.23513C6.91928 4.90253 6.91928 5.84638 6.91928 5.84638C6.91928 6.09807 7.12332 6.30211 7.37501 6.30211C7.49588 6.30211 7.61179 6.25409 7.69726 6.16863C7.78273 6.08316 7.83074 5.96725 7.83074 5.84638C7.83074 5.28007 8.23118 4.87963 8.23118 4.87963C8.63162 4.47919 9.19793 4.47919 9.19793 4.47919H12.8438V11.7709H9.19793C8.25408 11.7709 7.58668 12.4383 7.58668 12.4383Z" fill="#1C1C1C"/>
<path id="Vector_3" fill-rule="evenodd" clip-rule="evenodd" d="M0.994781 4.47919C0.994781 4.47919 0.994781 4.10165 1.26174 3.83469C1.26174 3.83469 1.5287 3.56773 1.90624 3.56773H5.55207C5.55207 3.56773 6.49592 3.56773 7.16332 4.23513C7.16332 4.23513 7.83072 4.90253 7.83072 5.84638V14.0495C7.83072 14.3012 7.62668 14.5052 7.37499 14.5052C7.1233 14.5052 6.91926 14.3012 6.91926 14.0495C6.91926 14.0495 6.91926 13.4832 6.51882 13.0828C6.51882 13.0828 6.11838 12.6823 5.55207 12.6823H1.90624C1.90624 12.6823 1.5287 12.6823 1.26174 12.4154C1.26174 12.4154 0.994781 12.1484 0.994781 11.7709V4.47919ZM6.91926 5.84638V12.2236C6.91926 12.2236 6.32942 11.7709 5.55207 11.7709H1.90624V4.47919H5.55207C5.55207 4.47919 6.11838 4.47919 6.51882 4.87963C6.51882 4.87963 6.91926 5.28007 6.91926 5.84638Z" fill="#1C1C1C"/>
</g>
</svg>
