<svg width="15" height="16" viewBox="0 0 15 16" fill="none" xmlns="http://www.w3.org/2000/svg">
<g id="ChartPieSlice-d">
<path id="Vector" d="M1.99737 9.12759C1.93523 8.79709 1.90469 8.46136 1.90624 8.12501C1.90552 6.99398 2.25583 5.89065 2.90888 4.96723C3.56193 4.04375 4.48546 3.34581 5.55208 2.96957V7.07114L1.99737 9.12759Z" fill="black" fill-opacity="0.1"/>
<path id="Vector_2" d="M7.83074 8.12501V2.65626C7.83074 2.40457 7.6267 2.20053 7.37501 2.20053C7.12332 2.20053 6.91928 2.40457 6.91928 2.65626V8.12501C6.91928 8.3767 7.12332 8.58074 7.37501 8.58074C7.6267 8.58074 7.83074 8.3767 7.83074 8.12501Z" fill="#1C1C1C"/>
<path id="Vector_3" d="M2.41352 10.4646L2.41318 10.4648C2.30852 10.5252 2.23216 10.6248 2.2009 10.7415C2.19061 10.78 2.18539 10.8196 2.18539 10.8594C2.18539 10.8642 2.18547 10.869 2.18562 10.8738C2.18801 10.9489 2.20892 11.0223 2.2465 11.0873C2.32792 11.2283 2.47834 11.3151 2.64112 11.3151C2.6482 11.3151 2.65528 11.3149 2.66235 11.3146C2.73511 11.3112 2.806 11.2904 2.86907 11.254L2.86941 11.2538L12.3368 5.78526C12.4778 5.70384 12.5646 5.55342 12.5646 5.39064C12.5646 5.38356 12.5645 5.37648 12.5641 5.36941C12.5607 5.29665 12.54 5.22576 12.5035 5.16269C12.4431 5.05803 12.3435 4.98167 12.2268 4.95041C12.1883 4.94012 12.1487 4.93491 12.1089 4.93491C12.1041 4.93491 12.0993 4.93498 12.0944 4.93514C12.0194 4.93752 11.946 4.95843 11.881 4.99601L2.41352 10.4646Z" fill="#1C1C1C"/>
<path id="Vector_4" fill-rule="evenodd" clip-rule="evenodd" d="M5.78029 7.4656L2.2256 9.52208C2.12098 9.58261 1.9966 9.59909 1.87982 9.56791C1.76305 9.53673 1.66344 9.46044 1.60291 9.35582C1.5771 9.3112 1.55904 9.26252 1.54951 9.21185C1.54951 9.21185 1.44799 8.67211 1.45052 8.12291C1.45052 8.12291 1.44931 6.24185 2.5368 4.70407C2.5368 4.70407 3.62429 3.1663 5.40048 2.53979C5.51447 2.49959 5.63975 2.50631 5.74878 2.55848C5.85781 2.61065 5.94165 2.70399 5.98185 2.81798C5.99903 2.86667 6.0078 2.91793 6.0078 2.96957V7.07113C6.0078 7.2338 5.92109 7.38414 5.78029 7.4656ZM2.36772 8.38687L5.09634 6.80828V3.65691C5.09634 3.65691 4.00716 4.20347 3.28098 5.23034C3.28098 5.23034 2.36096 6.53131 2.36197 8.1271C2.36197 8.1271 2.36137 8.2573 2.36772 8.38687Z" fill="#1C1C1C"/>
<path id="Vector_5" d="M4.89534 12.4822C3.72999 11.8191 3.05123 10.6629 3.05123 10.6629C2.99004 10.5586 2.88995 10.483 2.77298 10.4525C2.7355 10.4428 2.69694 10.4378 2.65821 10.4378C2.65233 10.4378 2.64644 10.438 2.64055 10.4382C2.56548 10.4411 2.49229 10.4625 2.4275 10.5006C2.2881 10.5824 2.20248 10.7319 2.20248 10.8936L2.20249 10.8949C2.20272 10.9755 2.22436 11.0547 2.2652 11.1243C3.06737 12.4908 4.44461 13.2744 4.44461 13.2744C5.82184 14.058 7.40636 14.0494 7.40636 14.0494C8.99089 14.0409 10.3596 13.2424 10.3596 13.2424C11.7283 12.444 12.5157 11.069 12.5157 11.069C13.303 9.6939 13.2989 8.10936 13.2989 8.10936C13.2947 6.52482 12.5 5.15393 12.5 5.15393C11.7054 3.78305 10.3325 2.99188 10.3325 2.99188C8.95961 2.20071 7.37506 2.20053 7.37506 2.20053C7.34721 2.20053 7.31947 2.20307 7.29214 2.20813C7.07609 2.24808 6.91931 2.4365 6.91928 2.65621C6.91928 2.66353 6.91946 2.67083 6.91981 2.6781C6.92523 2.79127 6.97262 2.89835 7.05272 2.97847C7.13818 3.06395 7.25409 3.11198 7.37496 3.11199H7.37517C8.71582 3.11219 9.87741 3.78159 9.87741 3.78159C11.0391 4.45104 11.7115 5.61102 11.7115 5.61102C12.3839 6.77101 12.3874 8.11177 12.3874 8.11177C12.3909 9.45253 11.7247 10.6161 11.7247 10.6161C11.0584 11.7796 9.90031 12.4551 9.90031 12.4551C8.74219 13.1307 7.40144 13.138 7.40144 13.138C6.06069 13.1452 4.89534 12.4822 4.89534 12.4822Z" fill="#1C1C1C"/>
</g>
</svg>
