<svg width="15" height="16" viewBox="0 0 15 16" fill="none" xmlns="http://www.w3.org/2000/svg">
<g id="ChatsTeardrop-d">
<path id="Vector" d="M9.42008 5.06302C9.57632 5.49986 9.65538 5.96057 9.65365 6.4245C9.65365 7.51231 9.22154 8.55556 8.45233 9.32476C7.68314 10.0939 6.6399 10.5261 5.55209 10.5261H5.32993C5.6127 11.3259 6.13655 12.0184 6.82929 12.5081C7.52204 12.9978 8.34958 13.2606 9.19792 13.2604H12.9577C13.0483 13.2604 13.1353 13.2244 13.1994 13.1603C13.2635 13.0962 13.2995 13.0093 13.2995 12.9186V9.15888C13.301 8.10908 12.8993 7.09879 12.1774 6.33659C11.4555 5.57441 10.4684 5.1185 9.42008 5.06302Z" fill="black" fill-opacity="0.1"/>
<path id="Vector_2" fill-rule="evenodd" clip-rule="evenodd" d="M7.29607 2.21412C7.29607 2.21412 6.45858 1.86722 5.55207 1.86722H5.55174C5.55174 1.86722 4.64542 1.86728 3.80807 2.21412C3.80807 2.21412 2.97057 2.56102 2.32958 3.20202C2.32958 3.20202 1.68859 3.84301 1.34168 4.68051C1.34168 4.68051 0.994781 5.51801 0.994781 6.42451V10.1843C0.994781 10.1843 0.994781 10.5146 1.22837 10.7482C1.22837 10.7482 1.46196 10.9818 1.79231 10.9818H5.55207C5.55207 10.9818 6.45857 10.9818 7.29607 10.6349C7.29607 10.6349 8.13357 10.288 8.77457 9.647C8.77457 9.647 9.41556 9.00601 9.76246 8.16851C9.76246 8.16851 10.1094 7.33101 10.1094 6.42451C10.1094 6.42451 10.1094 5.51801 9.76246 4.68051C9.76246 4.68051 9.41556 3.84301 8.77457 3.20202C8.77457 3.20202 8.13357 2.56102 7.29607 2.21412ZM9.19791 6.42451C9.19791 6.42451 9.19791 5.69931 8.92038 5.02931C8.92038 5.02931 8.64286 4.35931 8.13007 3.84652C8.13007 3.84652 7.61727 3.33372 6.94727 3.0562C6.94727 3.0562 6.27741 2.77873 5.55237 2.77868L5.55207 2.77868C5.55207 2.77868 4.82687 2.77868 4.15687 3.0562C4.15687 3.0562 3.48687 3.33372 2.97408 3.84652C2.97408 3.84652 2.46128 4.35931 2.18376 5.02931C2.18376 5.02931 1.90624 5.69931 1.90624 6.42451L1.90624 10.0703H5.55207C5.55207 10.0703 6.27727 10.0703 6.94727 9.79282C6.94727 9.79282 7.61727 9.5153 8.13007 9.0025C8.13007 9.0025 8.64286 8.48971 8.92038 7.81971C8.92038 7.81971 9.19791 7.14971 9.19791 6.42451Z" fill="#1C1C1C"/>
<path id="Vector_3" d="M9.44416 4.60792C9.43614 4.6075 9.42811 4.60728 9.42008 4.60728C9.4003 4.60728 9.38055 4.60857 9.36095 4.61114C9.1431 4.63964 8.97659 4.81953 8.96498 5.03893C8.96456 5.04695 8.96434 5.05498 8.96434 5.06301C8.96434 5.06964 8.96449 5.07627 8.96478 5.0829C8.96939 5.18849 9.01056 5.2892 9.08124 5.36778C9.16207 5.45764 9.27529 5.51172 9.39599 5.51811C10.8472 5.59491 11.8465 6.64998 11.8465 6.64998C12.8458 7.70504 12.8437 9.15824 12.8437 9.15824V12.8047H9.19791C8.03876 12.805 7.09234 12.136 7.09234 12.136C6.14606 11.467 5.75969 10.3745 5.75969 10.3745L5.75957 10.3742C5.69519 10.1921 5.52304 10.0703 5.32991 10.0703L5.32432 10.0704C5.27445 10.071 5.22502 10.0798 5.178 10.0964C5.06404 10.1367 4.97076 10.2206 4.91867 10.3297C4.88938 10.391 4.87418 10.4581 4.87418 10.5261L4.87428 10.536C4.87533 10.5844 4.8841 10.6323 4.90024 10.678C5.38317 12.0439 6.5662 12.8802 6.5662 12.8802C7.74923 13.7165 9.19791 13.7162 9.19791 13.7162H12.9577C13.288 13.7162 13.5216 13.4826 13.5216 13.4826C13.7552 13.249 13.7552 12.9186 13.7552 12.9186V9.15952C13.7564 8.28456 13.4332 7.4715 13.4332 7.4715C13.1099 6.65845 12.5082 6.0232 12.5082 6.0232C11.9065 5.38795 11.1122 5.02106 11.1122 5.02106C10.318 4.65423 9.44448 4.60794 9.44448 4.60794L9.44416 4.60792Z" fill="#1C1C1C"/>
</g>
</svg>
