<svg width="15" height="16" viewBox="0 0 15 16" fill="none" xmlns="http://www.w3.org/2000/svg">
<g id="FolderNotch-d">
<path id="Vector" d="M5.39832 6.42448H1.90625V4.14584C1.90625 4.02495 1.95432 3.90907 2.03976 3.82357C2.12521 3.73812 2.24115 3.69011 2.36198 3.69011H5.39832C5.49679 3.6905 5.59258 3.72243 5.67169 3.78123L7.375 5.0573L5.67169 6.33336C5.59258 6.39216 5.49679 6.42409 5.39832 6.42448Z" fill="black" fill-opacity="0.1"/>
<path id="Vector_2" d="M2.36199 11.8932V6.42449C2.36199 6.1728 2.15795 5.96877 1.90626 5.96877C1.65457 5.96877 1.45053 6.1728 1.45053 6.42449V11.8932C1.45053 12.2708 1.71749 12.5377 1.71749 12.5377C1.98445 12.8047 2.36199 12.8047 2.36199 12.8047H12.388C12.7656 12.8047 13.0325 12.5377 13.0325 12.5377C13.2995 12.2708 13.2995 11.8932 13.2995 11.8932V5.51304C13.2995 5.1355 13.0325 4.86854 13.0325 4.86854C12.7656 4.60158 12.388 4.60158 12.388 4.60158H7.37501C7.12332 4.60158 6.91928 4.80561 6.91928 5.05731C6.91928 5.309 7.12332 5.51304 7.37501 5.51304H12.388V11.8932H2.36199Z" fill="#1C1C1C"/>
<path id="Vector_3" fill-rule="evenodd" clip-rule="evenodd" d="M5.94366 6.69905C5.94366 6.69905 5.70187 6.87885 5.40061 6.88022L5.40017 6.88022L5.39828 6.88022H1.90626C1.65457 6.88022 1.45053 6.67619 1.45053 6.42449V4.14585C1.45053 4.14585 1.45053 3.76831 1.71749 3.50135C1.71749 3.50135 1.98445 3.23439 2.36199 3.23439L5.40016 3.23439C5.40016 3.23439 5.70169 3.23563 5.94496 3.41654L7.64825 4.69258C7.68294 4.71857 7.71375 4.74937 7.73974 4.78406C7.81221 4.8808 7.84328 5.00236 7.82612 5.122C7.80897 5.24164 7.74499 5.34957 7.64825 5.42204L5.94366 6.69905ZM5.39661 5.96877C5.39661 5.96877 5.39836 5.9687 5.39979 5.96764L6.61492 5.05731L5.39848 4.14599C5.39848 4.14599 5.39828 4.14585 5.39641 4.14584L2.36199 4.14585V5.96877H5.39661Z" fill="#1C1C1C"/>
</g>
</svg>
