<svg width="15" height="16" viewBox="0 0 15 16" fill="none" xmlns="http://www.w3.org/2000/svg">
<g id="IdentificationCard-d">
<path id="Vector" fill-rule="evenodd" clip-rule="evenodd" d="M2.36198 3.2344H12.388C12.5089 3.2344 12.6248 3.28246 12.7102 3.36791C12.7957 3.45336 12.8438 3.5693 12.8438 3.69013V11.8933C12.8438 12.0141 12.7957 12.13 12.7102 12.2155C12.6248 12.3009 12.5089 12.349 12.388 12.349H2.36198C2.24115 12.349 2.12521 12.3009 2.03976 12.2155C1.95432 12.13 1.90625 12.0141 1.90625 11.8933V3.69013C1.90625 3.5693 1.95432 3.45336 2.03976 3.36791C2.12521 3.28246 2.24115 3.2344 2.36198 3.2344ZM4.57031 8.47272C4.79517 8.62293 5.05953 8.70315 5.32989 8.70315C5.50969 8.70393 5.68782 8.6691 5.85405 8.60056C6.02027 8.53214 6.17126 8.43145 6.29832 8.30439C6.42549 8.17732 6.52607 8.02623 6.59461 7.86C6.66303 7.69389 6.69786 7.51576 6.69708 7.33596C6.69708 7.06559 6.61697 6.80124 6.46666 6.57637C6.31645 6.35151 6.10294 6.17628 5.85316 6.0728C5.60326 5.96933 5.32845 5.94229 5.0632 5.99503C4.79795 6.04777 4.5544 6.17806 4.36314 6.3692C4.17199 6.56046 4.0417 6.80402 3.98896 7.06927C3.93623 7.3344 3.96337 7.60933 4.06685 7.85911C4.17032 8.10901 4.34556 8.32252 4.57031 8.47272Z" fill="black" fill-opacity="0.1"/>
<path id="Vector_2" d="M8.7422 7.33596H11.0208C11.2725 7.33596 11.4766 7.13192 11.4766 6.88023C11.4766 6.62854 11.2725 6.4245 11.0208 6.4245H8.7422C8.49051 6.4245 8.28647 6.62854 8.28647 6.88023C8.28647 7.13192 8.49051 7.33596 8.7422 7.33596Z" fill="#1C1C1C"/>
<path id="Vector_3" d="M8.7422 9.15888H11.0208C11.2725 9.15888 11.4766 8.95484 11.4766 8.70315C11.4766 8.45146 11.2725 8.24742 11.0208 8.24742H8.7422C8.49051 8.24742 8.28647 8.45146 8.28647 8.70315C8.28647 8.95484 8.49051 9.15888 8.7422 9.15888Z" fill="#1C1C1C"/>
<path id="Vector_4" fill-rule="evenodd" clip-rule="evenodd" d="M5.32991 5.51305C5.32991 5.51305 6.08498 5.51305 6.6189 6.04697C6.6189 6.04697 7.15282 6.58089 7.15282 7.33596C7.15282 7.33596 7.15282 8.09104 6.6189 8.62496C6.6189 8.62496 6.08498 9.15888 5.32991 9.15888C5.32991 9.15888 4.57483 9.15888 4.04091 8.62496C4.04091 8.62496 3.50699 8.09104 3.50699 7.33596C3.50699 7.33596 3.50699 6.58089 4.04091 6.04697C4.04091 6.04697 4.57483 5.51305 5.32991 5.51305ZM5.32991 6.4245C5.32991 6.4245 4.95237 6.4245 4.68541 6.69146C4.68541 6.69146 4.41845 6.95842 4.41845 7.33596C4.41845 7.33596 4.41845 7.7135 4.68541 7.98046C4.68541 7.98046 4.95237 8.24742 5.32991 8.24742C5.32991 8.24742 5.70744 8.24742 5.9744 7.98046C5.9744 7.98046 6.24136 7.7135 6.24136 7.33596C6.24136 7.33596 6.24136 6.95842 5.9744 6.69146C5.9744 6.69146 5.70744 6.4245 5.32991 6.4245Z" fill="#1C1C1C"/>
<path id="Vector_5" d="M6.16825 9.44248C6.53786 9.72938 6.65416 10.1825 6.65416 10.1825L6.65428 10.1829L6.65439 10.1834C6.70602 10.385 6.88772 10.5261 7.09588 10.5261L7.10504 10.526C7.1401 10.5253 7.17495 10.5205 7.20891 10.5118C7.41057 10.4602 7.55161 10.2785 7.55161 10.0703L7.55151 10.0612C7.55081 10.0261 7.54606 9.99126 7.53736 9.9573C7.34375 9.20111 6.72713 8.72247 6.72713 8.72247C6.11051 8.24384 5.32993 8.24384 5.32993 8.24384C4.54934 8.24384 3.93272 8.72248 3.93272 8.72248C3.3161 9.20111 3.12249 9.9573 3.12249 9.9573C3.11303 9.99423 3.10825 10.0322 3.10825 10.0703C3.10825 10.0768 3.10838 10.0833 3.10866 10.0898C3.11187 10.1648 3.13358 10.2379 3.17187 10.3026C3.23346 10.4066 3.33385 10.4818 3.45094 10.5118C3.48787 10.5213 3.52585 10.5261 3.56398 10.5261C3.57046 10.5261 3.57694 10.5259 3.58341 10.5256C3.65848 10.5224 3.73158 10.5007 3.79622 10.4624C3.90022 10.4008 3.97548 10.3005 4.00546 10.1834C4.12163 9.72966 4.4916 9.44248 4.4916 9.44248C4.86158 9.1553 5.32993 9.1553 5.32993 9.1553C5.79827 9.1553 6.16825 9.44248 6.16825 9.44248Z" fill="#1C1C1C"/>
<path id="Vector_6" fill-rule="evenodd" clip-rule="evenodd" d="M1.45053 3.69013C1.45053 3.69013 1.45053 3.31259 1.71749 3.04563C1.71749 3.04563 1.98445 2.77867 2.36199 2.77867H12.388C12.388 2.77867 12.7656 2.77867 13.0325 3.04563C13.0325 3.04563 13.2995 3.31259 13.2995 3.69013V11.8933C13.2995 11.8933 13.2995 12.2708 13.0325 12.5378C13.0325 12.5378 12.7656 12.8047 12.388 12.8047H2.36199C2.36199 12.8047 1.98445 12.8047 1.71749 12.5378C1.71749 12.5378 1.45053 12.2708 1.45053 11.8933V3.69013ZM2.36199 3.69013V11.8933H12.388V3.69013H2.36199Z" fill="#1C1C1C"/>
</g>
</svg>
