<svg width="15" height="15" viewBox="0 0 15 15" fill="none" xmlns="http://www.w3.org/2000/svg">
<g id="Notebook-d">
<path id="Vector" d="M4.64061 12.4714H2.8177C2.69687 12.4714 2.58093 12.4234 2.49548 12.3379C2.41003 12.2524 2.36197 12.1365 2.36197 12.0156V2.90106C2.36197 2.78018 2.41003 2.6643 2.49548 2.57879C2.58093 2.49334 2.69687 2.44534 2.8177 2.44534H4.64061V12.4714Z" fill="black" fill-opacity="0.1"/>
<path id="Vector_2" d="M6.46354 7.00263H10.1094C10.3611 7.00263 10.5651 6.79859 10.5651 6.5469C10.5651 6.29521 10.3611 6.09117 10.1094 6.09117H6.46354C6.21185 6.09117 6.00781 6.29521 6.00781 6.5469C6.00781 6.79859 6.21185 7.00263 6.46354 7.00263Z" fill="#1C1C1C"/>
<path id="Vector_3" d="M6.46354 8.82554H10.1094C10.3611 8.82554 10.5651 8.62151 10.5651 8.36981C10.5651 8.11812 10.3611 7.91409 10.1094 7.91409H6.46354C6.21185 7.91409 6.00781 8.11812 6.00781 8.36981C6.00781 8.62151 6.21185 8.82554 6.46354 8.82554Z" fill="#1C1C1C"/>
<path id="Vector_4" fill-rule="evenodd" clip-rule="evenodd" d="M1.90625 2.90107C1.90625 2.90107 1.90625 2.52353 2.17321 2.25657C2.17321 2.25657 2.44017 1.98961 2.81771 1.98961H11.9323C11.9323 1.98961 12.3098 1.98961 12.5768 2.25657C12.5768 2.25657 12.8438 2.52353 12.8438 2.90107V12.0156C12.8438 12.0156 12.8438 12.3932 12.5768 12.6601C12.5768 12.6601 12.3098 12.9271 11.9323 12.9271H2.81771C2.81771 12.9271 2.44017 12.9271 2.17321 12.6601C2.17321 12.6601 1.90625 12.3932 1.90625 12.0156V2.90107ZM2.81771 2.90107V12.0156H11.9323V2.90107H2.81771Z" fill="#1C1C1C"/>
<path id="Vector_5" d="M4.18491 2.44534V12.4714C4.18491 12.7231 4.38894 12.9271 4.64064 12.9271C4.89233 12.9271 5.09636 12.7231 5.09636 12.4714V2.44534C5.09636 2.19365 4.89233 1.98961 4.64064 1.98961C4.38894 1.98961 4.18491 2.19365 4.18491 2.44534Z" fill="#1C1C1C"/>
</g>
</svg>
