<svg width="15" height="15" viewBox="0 0 15 15" fill="none" xmlns="http://www.w3.org/2000/svg">
<g id="ShoppingBagOpen-d">
<path id="Vector" d="M1.90625 4.72396H12.8438V3.35678C12.8438 3.23595 12.7957 3.12001 12.7103 3.03456C12.6248 2.94911 12.5089 2.90105 12.388 2.90105H2.36198C2.24111 2.90105 2.12519 2.94911 2.03973 3.03456C1.95427 3.12001 1.90625 3.23595 1.90625 3.35678V4.72396Z" fill="black" fill-opacity="0.1"/>
<path id="Vector_2" fill-rule="evenodd" clip-rule="evenodd" d="M1.45053 3.35679C1.45053 3.35679 1.45053 2.97925 1.71749 2.71229C1.71749 2.71229 1.98445 2.44533 2.36199 2.44533H12.388C12.388 2.44533 12.7656 2.44533 13.0325 2.71229C13.0325 2.71229 13.2995 2.97925 13.2995 3.35679V11.5599C13.2995 11.5599 13.2995 11.9375 13.0325 12.2044C13.0325 12.2044 12.7656 12.4714 12.388 12.4714H2.36199C2.36199 12.4714 1.98445 12.4714 1.71749 12.2044C1.71749 12.2044 1.45053 11.9375 1.45053 11.5599V3.35679ZM2.36199 3.35679V11.5599H12.388V3.35679H2.36199Z" fill="#1C1C1C"/>
<path id="Vector_3" d="M1.90626 5.17969H12.8438C13.0955 5.17969 13.2995 4.97566 13.2995 4.72396C13.2995 4.47227 13.0955 4.26823 12.8438 4.26823H1.90626C1.65457 4.26823 1.45053 4.47227 1.45053 4.72396C1.45053 4.97566 1.65457 5.17969 1.90626 5.17969Z" fill="#1C1C1C"/>
<path id="Vector_4" d="M6.086 7.83588C5.55208 7.30196 5.55208 6.54689 5.55208 6.54689C5.55208 6.29519 5.34805 6.09116 5.09635 6.09116C4.84466 6.09116 4.64062 6.29519 4.64062 6.54689C4.64062 7.6795 5.4415 8.48038 5.4415 8.48038C6.24238 9.28126 7.375 9.28126 7.375 9.28126C8.50761 9.28126 9.3085 8.48038 9.3085 8.48038C10.1094 7.6795 10.1094 6.54689 10.1094 6.54689C10.1094 6.29519 9.90534 6.09116 9.65365 6.09116C9.40195 6.09116 9.19792 6.29519 9.19792 6.54689C9.19792 7.30196 8.664 7.83588 8.664 7.83588C8.13008 8.3698 7.375 8.3698 7.375 8.3698C6.61992 8.3698 6.086 7.83588 6.086 7.83588Z" fill="#1C1C1C"/>
</g>
</svg>
