<svg width="48" height="16" viewBox="0 0 48 16" fill="none" xmlns="http://www.w3.org/2000/svg">
<path d="M7.69112 1.05823C7.69112 0.841986 7.52053 0.666687 7.31009 0.666687C7.09966 0.666687 6.92907 0.841986 6.92907 1.05823V3.31283C6.92907 3.4272 6.7945 3.48447 6.7158 3.4036L5.59441 2.25125C5.44561 2.09835 5.20436 2.09835 5.05556 2.25125C4.90676 2.40416 4.90676 2.65207 5.05556 2.80498L6.70953 4.5046C6.8501 4.64905 6.92907 4.84496 6.92907 5.04924V7.05566C6.92907 7.15449 6.82496 7.21625 6.74168 7.16684L5.04534 6.16042C4.87317 6.05828 4.74755 5.89004 4.6961 5.69272L4.0907 3.371C4.03624 3.16212 3.82731 3.03817 3.62405 3.09413C3.42078 3.1501 3.30016 3.3648 3.35462 3.57367L3.76508 5.14781C3.79388 5.25828 3.67833 5.3494 3.58195 5.29221L1.68726 4.16812C1.50502 4.06 1.27199 4.12416 1.16677 4.31144C1.06156 4.49871 1.124 4.73817 1.30624 4.84629L3.20303 5.97163C3.29942 6.02882 3.28041 6.17721 3.1729 6.20681L1.63772 6.62952C1.43446 6.68548 1.31383 6.90018 1.36829 7.10905C1.42276 7.31793 1.63169 7.44188 1.83495 7.38592L4.09764 6.7629C4.28966 6.71002 4.49426 6.7377 4.66642 6.83984L6.36187 7.84573C6.44515 7.89514 6.44516 8.01867 6.36187 8.06808L4.66309 9.07595C4.49093 9.17809 4.28633 9.20577 4.09431 9.1529L1.83495 8.53079C1.63169 8.47482 1.42276 8.59878 1.36829 8.80765C1.31383 9.01653 1.43446 9.23123 1.63772 9.28719L3.16957 9.70898C3.27708 9.73858 3.29609 9.88697 3.1997 9.94416L1.30502 11.0682C1.12278 11.1764 1.06034 11.4158 1.16555 11.6031C1.27077 11.7904 1.5038 11.8545 1.68604 11.7464L3.58284 10.6211C3.67923 10.5639 3.79478 10.655 3.76597 10.7655L3.35462 12.343C3.30016 12.5519 3.42078 12.7666 3.62404 12.8226C3.82731 12.8785 4.03624 12.7546 4.0907 12.5457L4.69699 10.2206C4.74844 10.0232 4.87407 9.855 5.04623 9.75286L6.74168 8.74698C6.82496 8.69756 6.92907 8.75933 6.92907 8.85815V10.8739C6.92907 11.0782 6.8501 11.2741 6.70953 11.4185L5.05556 13.1181C4.90676 13.2711 4.90676 13.519 5.05556 13.6719C5.20436 13.8248 5.44561 13.8248 5.59441 13.6719L6.7158 12.5195C6.7945 12.4387 6.92907 12.4959 6.92907 12.6103V14.8585C6.92907 15.0747 7.09966 15.25 7.31009 15.25C7.52053 15.25 7.69112 15.0747 7.69112 14.8585V12.6078C7.69112 12.4934 7.82568 12.4361 7.90438 12.517L9.02821 13.6719C9.17701 13.8248 9.41826 13.8248 9.56706 13.6719C9.71586 13.519 9.71586 13.2711 9.56706 13.1181L7.91066 11.416C7.77009 11.2716 7.69112 11.0757 7.69112 10.8714V8.85671C7.69112 8.75788 7.79522 8.69612 7.87851 8.74553L9.57099 9.74966C9.74315 9.8518 9.86878 10.02 9.92023 10.2174L10.5265 12.5425C10.581 12.7514 10.7899 12.8753 10.9932 12.8194C11.1964 12.7634 11.3171 12.5487 11.2626 12.3398L10.8512 10.7623C10.8224 10.6518 10.938 10.5607 11.0344 10.6179L12.9366 11.7464C13.1188 11.8545 13.3519 11.7904 13.4571 11.6031C13.5623 11.4158 13.4998 11.1764 13.3176 11.0682L11.4175 9.94095C11.3211 9.88376 11.3401 9.73537 11.4476 9.70577L12.9795 9.28398C13.1828 9.22802 13.3034 9.01332 13.2489 8.80444C13.1945 8.59557 12.9855 8.47161 12.7823 8.52758L10.5229 9.14969C10.3309 9.20256 10.1263 9.17488 9.95412 9.07274L8.26075 8.06808C8.17746 8.01867 8.17746 7.89514 8.26075 7.84573L9.95079 6.84305C10.123 6.74091 10.3275 6.71323 10.5196 6.7661L12.7823 7.38913C12.9855 7.44509 13.1945 7.32114 13.2489 7.11226C13.3034 6.90339 13.1828 6.68869 12.9795 6.63273L11.4443 6.21002C11.3368 6.18042 11.3178 6.03203 11.4142 5.97484L13.3164 4.84629C13.4986 4.73817 13.5611 4.49871 13.4558 4.31144C13.3506 4.12416 13.1176 4.06 12.9354 4.16812L11.0353 5.29542C10.9389 5.3526 10.8233 5.26149 10.8521 5.15101L11.2626 3.57688C11.3171 3.36801 11.1964 3.15331 10.9932 3.09734C10.7899 3.04138 10.581 3.16533 10.5265 3.37421L9.92112 5.69593C9.86967 5.89325 9.74405 6.06148 9.57188 6.16363L7.87851 7.16828C7.79522 7.2177 7.69112 7.15593 7.69112 7.05711V5.05175C7.69112 4.84747 7.77009 4.65155 7.91066 4.50711L9.56706 2.80498C9.71586 2.65207 9.71586 2.40416 9.56706 2.25125C9.41826 2.09835 9.17701 2.09835 9.02821 2.25125L7.90438 3.40611C7.82568 3.48698 7.69112 3.4297 7.69112 3.31533V1.05823Z" fill="#95A4FC"/>
<path d="M29.6473 11.3238V7.39747C29.6473 6.46815 28.9156 5.71478 28.0129 5.71478C27.1103 5.71478 26.3786 6.46815 26.3786 7.39747V11.3238H25.289V7.39747C25.289 5.8486 26.5086 4.59299 28.0129 4.59299C29.5173 4.59299 30.7368 5.8486 30.7368 7.39747V11.3238H29.6473Z" fill="#1C1C1C"/>
<path fill-rule="evenodd" clip-rule="evenodd" d="M35.6398 10.202C36.8433 10.202 37.819 9.19747 37.819 7.95837C37.819 6.71927 36.8433 5.71478 35.6398 5.71478C34.4363 5.71478 33.4607 6.71927 33.4607 7.95837C33.4607 9.19747 34.4363 10.202 35.6398 10.202ZM35.6398 11.3238C37.4451 11.3238 38.9085 9.81702 38.9085 7.95837C38.9085 6.09972 37.4451 4.59299 35.6398 4.59299C33.8346 4.59299 32.3712 6.09972 32.3712 7.95837C32.3712 9.81702 33.8346 11.3238 35.6398 11.3238Z" fill="#95A4FC"/>
<path d="M39.9981 4.59299L41.0249 10.3991C41.2379 11.6035 42.7999 11.6426 43.0629 10.4501L43.6716 7.14048C43.694 7.0189 43.8522 7.02138 43.8715 7.14361L44.3837 10.4009C44.611 11.6034 46.1753 11.6189 46.4225 10.4211L47.625 4.59299H46.5675L45.5094 10.1798C45.4866 10.2999 45.3307 10.2983 45.3099 10.1777L44.3488 4.59299H43.2844L42.1588 10.1962C42.1348 10.3159 41.979 10.3124 41.9594 10.1917L41.0506 4.59299H39.9981Z" fill="#1C1C1C"/>
<path d="M21.1465 11.3238C21.9117 11.3238 22.5211 11.1596 22.9745 10.8176C23.428 10.4756 23.6547 10.0104 23.6547 9.39482C23.6547 8.86128 23.4705 8.46455 23.1162 8.17726C22.7478 7.88997 22.266 7.64372 21.6566 7.42483C21.2457 7.26067 20.8914 7.11019 20.6222 6.97338C20.353 6.83658 20.2112 6.63137 20.2112 6.35776C20.2112 6.11151 20.3104 5.91999 20.523 5.79686C20.7356 5.67374 21.019 5.61902 21.3732 5.61902C21.6425 5.61902 21.9117 5.66006 22.1668 5.74214C22.4077 5.82423 22.6628 5.93367 22.932 6.08415L23.3713 5.15388C23.0737 4.96236 22.7478 4.82555 22.4077 4.72979C22.0676 4.63403 21.7275 4.59299 21.3732 4.59299C20.6647 4.59299 20.0979 4.74347 19.6586 5.05812C19.2193 5.37277 19.0067 5.81054 19.0209 6.37144C19.0351 6.8913 19.2193 7.28803 19.5877 7.56164C19.942 7.83525 20.4238 8.0815 21.0331 8.30038C21.4441 8.45087 21.7842 8.60135 22.0534 8.75184C22.3227 8.90232 22.4502 9.13489 22.4502 9.43586C22.4502 9.70947 22.3368 9.91467 22.1101 10.0652C21.8692 10.2156 21.5433 10.284 21.104 10.284C20.8064 10.284 20.4947 10.2293 20.1829 10.1336C19.8712 10.0378 19.5452 9.88731 19.191 9.65474L18.7517 10.6261C19.1059 10.8449 19.4885 11.0091 19.8712 11.1322C20.2538 11.2554 20.6789 11.3238 21.1465 11.3238Z" fill="#1C1C1C"/>
</svg>
