<svg width="15" height="16" viewBox="0 0 15 16" fill="none" xmlns="http://www.w3.org/2000/svg">
<g id="UsersThree-d">
<path id="Vector" d="M9.65364 8.80861C9.65364 10.0671 8.63347 11.0873 7.37499 11.0873C6.11651 11.0873 5.09634 10.0671 5.09634 8.80861C5.09634 7.55013 6.11651 6.52997 7.37499 6.52997C8.63347 6.52997 9.65364 7.55013 9.65364 8.80861Z" fill="black" fill-opacity="0.1"/>
<path id="Vector_2" d="M5.32421 5.61851C5.32421 6.62532 4.5081 7.44143 3.50129 7.44143C2.49448 7.44143 1.67838 6.62532 1.67838 5.61851C1.67838 4.6117 2.49448 3.79559 3.50129 3.79559C4.5081 3.79559 5.32421 4.6117 5.32421 5.61851Z" fill="black" fill-opacity="0.1"/>
<path id="Vector_3" d="M13.0716 5.61851C13.0716 6.62532 12.2555 7.44143 11.2487 7.44143C10.2419 7.44143 9.42578 6.62532 9.42578 5.61851C9.42578 4.6117 10.2419 3.79559 11.2487 3.79559C12.2555 3.79559 13.0716 4.6117 13.0716 5.61851Z" fill="black" fill-opacity="0.1"/>
<path id="Vector_4" fill-rule="evenodd" clip-rule="evenodd" d="M7.375 6.07424C7.375 6.07424 8.50761 6.07424 9.30849 6.87512C9.30849 6.87512 10.1094 7.676 10.1094 8.80862C10.1094 8.80862 10.1094 9.94123 9.30849 10.7421C9.30849 10.7421 8.50761 11.543 7.375 11.543C7.375 11.543 6.24238 11.543 5.4415 10.7421C5.4415 10.7421 4.64062 9.94123 4.64062 8.80862C4.64062 8.80862 4.64062 7.676 5.4415 6.87512C5.4415 6.87512 6.24238 6.07424 7.375 6.07424ZM7.375 6.9857C7.375 6.9857 6.61992 6.9857 6.086 7.51962C6.086 7.51962 5.55208 8.05354 5.55208 8.80862C5.55208 8.80862 5.55208 9.56369 6.086 10.0976C6.086 10.0976 6.61992 10.6315 7.375 10.6315C7.375 10.6315 8.13008 10.6315 8.664 10.0976C8.664 10.0976 9.19792 9.56369 9.19792 8.80862C9.19792 8.80862 9.19792 8.05354 8.664 7.51962C8.664 7.51962 8.13008 6.9857 7.375 6.9857Z" fill="#1C1C1C"/>
<path id="Vector_5" d="M13.6179 9.08125L13.6181 9.08145C13.6904 9.17827 13.7983 9.24237 13.9179 9.25967C13.9395 9.26279 13.9613 9.26435 13.9831 9.26435L13.9839 9.26435C14.082 9.26418 14.1774 9.23238 14.2559 9.17367C14.371 9.08763 14.4388 8.95234 14.4388 8.80863L14.4388 8.80341C14.4377 8.70685 14.4059 8.61314 14.3481 8.53579L14.3477 8.53528C13.8 7.80259 12.9817 7.39346 12.9817 7.39346C12.1631 6.98418 11.248 6.98571 11.248 6.98571L11.2487 6.98571C11.5004 6.98571 11.7044 7.18974 11.7044 7.44144C11.7044 7.69273 11.501 7.89661 11.2497 7.89717L13.6179 9.08125Z" fill="#1C1C1C"/>
<path id="Vector_6" d="M2.17593 8.20869C2.80132 7.896 3.50053 7.89717 3.50053 7.89717L3.50117 7.89717H3.50129C3.50834 7.89717 3.51538 7.897 3.52242 7.89668C3.6356 7.89142 3.74276 7.8442 3.823 7.76422C3.90861 7.6789 3.95682 7.56307 3.95702 7.4422L3.95702 7.44157V7.44144C3.95702 7.41388 3.95452 7.38637 3.94955 7.35926C3.90993 7.14315 3.72176 6.98608 3.50205 6.98571L3.50129 6.98571C2.58654 6.98435 1.76832 7.39346 1.76832 7.39346C0.950048 7.80259 0.402265 8.53528 0.402265 8.53528L0.401936 8.53572C0.343001 8.61457 0.311188 8.71028 0.311188 8.80862L0.311213 8.8134C0.311425 8.83362 0.312983 8.85381 0.315876 8.87383C0.33317 8.99345 0.397275 9.10131 0.49409 9.17367C0.572865 9.23254 0.668572 9.26435 0.766917 9.26435C0.77301 9.26435 0.779102 9.26423 0.785191 9.26399C0.922374 9.25848 1.04976 9.19142 1.13196 9.08145C1.55054 8.52139 2.17593 8.20869 2.17593 8.20869Z" fill="#1C1C1C"/>
<path id="Vector_7" d="M9.06791 12.0297C9.84445 12.5147 10.2464 13.3372 10.2464 13.3372L10.2466 13.3377L10.2467 13.338C10.3232 13.4945 10.4821 13.5938 10.6563 13.5938L10.6687 13.5936C10.7338 13.5918 10.7977 13.5761 10.8562 13.5476C11.0127 13.4712 11.112 13.3122 11.112 13.1381L11.1118 13.1256C11.11 13.0605 11.0943 12.9966 11.0658 12.9381L11.0656 12.9377C10.5491 11.8801 9.55074 11.2566 9.55074 11.2566C8.55225 10.633 7.37501 10.633 7.37501 10.633C6.19778 10.633 5.19928 11.2566 5.19928 11.2566C4.20096 11.8801 3.68442 12.9377 3.68442 12.9377L3.68426 12.9381C3.65384 13.0004 3.63803 13.0688 3.63803 13.1381L3.63807 13.144C3.6387 13.1924 3.64705 13.2404 3.66279 13.2862C3.70209 13.4005 3.78519 13.4945 3.8938 13.5476C3.95607 13.578 4.02446 13.5938 4.09376 13.5938L4.10422 13.5937C4.27457 13.5898 4.42851 13.4911 4.50328 13.338C4.90519 12.5149 5.68211 12.0297 5.68211 12.0297C6.45902 11.5445 7.37501 11.5445 7.37501 11.5445C8.291 11.5445 9.06791 12.0297 9.06791 12.0297Z" fill="#1C1C1C"/>
<path id="Vector_8" d="M4.49587 4.68238C4.7679 4.97193 4.84239 5.36217 4.84239 5.36217C4.86505 5.48089 4.93395 5.58575 5.03393 5.65367C5.10947 5.705 5.1987 5.73245 5.29004 5.73245L5.29299 5.73244C5.32068 5.73226 5.34829 5.72955 5.37549 5.72436C5.59035 5.68335 5.74577 5.49546 5.74577 5.27672L5.74576 5.27415C5.7456 5.24633 5.7429 5.21859 5.73768 5.19127C5.61353 4.54087 5.16015 4.05829 5.16015 4.05829C4.70677 3.57571 4.06537 3.41126 4.06537 3.41126C3.42397 3.24681 2.79432 3.45172 2.79432 3.45172C2.16468 3.65662 1.7429 4.16705 1.7429 4.16705C1.32112 4.67748 1.23858 5.33446 1.23858 5.33446C1.15604 5.99144 1.43844 6.59035 1.43844 6.59035C1.72084 7.18925 2.28023 7.54354 2.28023 7.54354C2.83942 7.89771 3.5013 7.89716 3.5013 7.89716L3.50176 7.89716C3.62263 7.89704 3.7385 7.8489 3.82388 7.76335C3.90914 7.67791 3.95703 7.56214 3.95703 7.44143L3.95703 7.44097C3.95677 7.18946 3.75281 6.9857 3.5013 6.9857L3.50084 6.9857C3.10355 6.9861 2.76792 6.77353 2.76792 6.77353C2.43228 6.56096 2.26284 6.20161 2.26284 6.20161C2.0934 5.84227 2.14293 5.44808 2.14293 5.44808C2.19245 5.05389 2.44552 4.74764 2.44552 4.74764C2.69859 4.44138 3.07637 4.31844 3.07637 4.31844C3.45416 4.19549 3.839 4.29416 3.839 4.29416C4.22384 4.39283 4.49587 4.68238 4.49587 4.68238Z" fill="#1C1C1C"/>
<path id="Vector_9" d="M11.9821 6.77353C11.6465 6.9861 11.2492 6.9857 11.2492 6.9857L11.2487 6.9857C11.2416 6.9857 11.2344 6.98587 11.2273 6.98621L10.7935 7.46286C10.7988 7.57603 10.8461 7.68316 10.9261 7.76335C11.0115 7.8489 11.1274 7.89704 11.2482 7.89716L11.2487 7.89716C11.9106 7.89771 12.4698 7.54354 12.4698 7.54354C13.0292 7.18925 13.3116 6.59035 13.3116 6.59035C13.594 5.99144 13.5114 5.33446 13.5114 5.33446C13.4289 4.67748 13.0071 4.16705 13.0071 4.16705C12.5853 3.65662 11.9557 3.45172 11.9557 3.45172C11.326 3.24681 10.6846 3.41126 10.6846 3.41126C10.0432 3.57571 9.58986 4.05829 9.58986 4.05829C9.13648 4.54086 9.01232 5.19127 9.01232 5.19127C9.00695 5.21943 9.00424 5.24804 9.00424 5.27672C9.00424 5.29041 9.00486 5.3041 9.00609 5.31774C9.0244 5.52031 9.17473 5.68623 9.37452 5.72436C9.40269 5.72974 9.4313 5.73245 9.45997 5.73245C9.47367 5.73245 9.48735 5.73183 9.50099 5.7306C9.70357 5.71229 9.86948 5.56196 9.90762 5.36217C9.98211 4.97192 10.2541 4.68238 10.2541 4.68238C10.5262 4.39283 10.911 4.29416 10.911 4.29416C11.2958 4.19549 11.6736 4.31844 11.6736 4.31844C12.0514 4.44138 12.3045 4.74764 12.3045 4.74764C12.5576 5.05389 12.6071 5.44808 12.6071 5.44808C12.6566 5.84227 12.4872 6.20161 12.4872 6.20161C12.3177 6.56096 11.9821 6.77353 11.9821 6.77353Z" fill="#1C1C1C"/>
</g>
</svg>
